<mxfile host="Electron" modified="2023-04-22T14:45:47.430Z" agent="Mozilla/5.0 (Windows NT 10.0; Win64; x64) AppleWebKit/537.36 (KHTML, like Gecko) draw.io/21.2.1 Chrome/112.0.5615.87 Electron/24.1.2 Safari/537.36" etag="GqsGw-duXvv0XnxqZEQo" version="21.2.1" type="device">
  <diagram id="piDafpqhtRUU5qUU-vj8" name="Page-1">
    <mxGraphModel dx="1036" dy="623" grid="1" gridSize="10" guides="1" tooltips="1" connect="1" arrows="1" fold="1" page="1" pageScale="1" pageWidth="827" pageHeight="1169" background="none" math="0" shadow="0">
      <root>
        <mxCell id="0" />
        <mxCell id="1" parent="0" />
        <mxCell id="xAar8N62TWONarskroTS-1" value="" style="group" parent="1" vertex="1" connectable="0">
          <mxGeometry x="10" y="10" width="600" height="600" as="geometry" />
        </mxCell>
        <mxCell id="JClia46MZZyIFO26MaTg-1" value="" style="whiteSpace=wrap;html=1;aspect=fixed;shadow=1;" parent="xAar8N62TWONarskroTS-1" vertex="1">
          <mxGeometry width="600" height="600" as="geometry" />
        </mxCell>
        <mxCell id="JClia46MZZyIFO26MaTg-2" value="&lt;font style=&quot;font-size: 18px;&quot;&gt;Logó&lt;/font&gt;" style="whiteSpace=wrap;html=1;fontSize=18;fontFamily=Comic Sans MS;" parent="xAar8N62TWONarskroTS-1" vertex="1">
          <mxGeometry x="200" y="60" width="200" height="100" as="geometry" />
        </mxCell>
        <mxCell id="JClia46MZZyIFO26MaTg-3" value="" style="rounded=0;whiteSpace=wrap;html=1;fontFamily=Comic Sans MS;" parent="xAar8N62TWONarskroTS-1" vertex="1">
          <mxGeometry x="175" y="230" width="250" height="50" as="geometry" />
        </mxCell>
        <mxCell id="JClia46MZZyIFO26MaTg-4" value="Felhasználónév" style="text;html=1;strokeColor=none;fillColor=none;align=left;verticalAlign=middle;whiteSpace=wrap;rounded=0;fontFamily=Comic Sans MS;" parent="xAar8N62TWONarskroTS-1" vertex="1">
          <mxGeometry x="175" y="210" width="105" height="20" as="geometry" />
        </mxCell>
        <mxCell id="JClia46MZZyIFO26MaTg-5" value="Jelszó" style="text;html=1;strokeColor=none;fillColor=none;align=left;verticalAlign=middle;whiteSpace=wrap;rounded=0;fontFamily=Comic Sans MS;" parent="xAar8N62TWONarskroTS-1" vertex="1">
          <mxGeometry x="175" y="300" width="105" height="20" as="geometry" />
        </mxCell>
        <mxCell id="JClia46MZZyIFO26MaTg-6" value="" style="rounded=0;whiteSpace=wrap;html=1;fontFamily=Comic Sans MS;" parent="xAar8N62TWONarskroTS-1" vertex="1">
          <mxGeometry x="175" y="320" width="250" height="50" as="geometry" />
        </mxCell>
        <mxCell id="JClia46MZZyIFO26MaTg-9" value="" style="shape=mxgraph.signs.healthcare.eye;html=1;pointerEvents=1;fillColor=#000000;strokeColor=none;verticalLabelPosition=bottom;verticalAlign=top;align=center;aspect=fixed;strokeWidth=1;" parent="xAar8N62TWONarskroTS-1" vertex="1">
          <mxGeometry x="430" y="333.90000000000003" width="40" height="22.2" as="geometry" />
        </mxCell>
        <mxCell id="JClia46MZZyIFO26MaTg-10" value="BEJELENTKEZÉS" style="strokeWidth=1;shadow=0;dashed=0;align=center;html=1;shape=mxgraph.mockup.buttons.button;mainText=;buttonStyle=round;fontSize=14;fontStyle=1;fillColor=none;whiteSpace=wrap;fontFamily=Comic Sans MS;" parent="xAar8N62TWONarskroTS-1" vertex="1">
          <mxGeometry x="200" y="410" width="200" height="50" as="geometry" />
        </mxCell>
        <mxCell id="JClia46MZZyIFO26MaTg-11" value="ÚJ FIÓK LÉTREHOZÁSA" style="strokeWidth=1;shadow=0;dashed=0;align=center;html=1;shape=mxgraph.mockup.buttons.button;mainText=;buttonStyle=round;fontSize=14;fontStyle=1;fillColor=none;whiteSpace=wrap;fontFamily=Comic Sans MS;" parent="xAar8N62TWONarskroTS-1" vertex="1">
          <mxGeometry x="200" y="480" width="200" height="50" as="geometry" />
        </mxCell>
      </root>
    </mxGraphModel>
  </diagram>
</mxfile>
